<?xml version="1.0" standalone="no"?>
<!DOCTYPE svg PUBLIC "-//W3C//DTD SVG 20010904//EN"
 "http://www.w3.org/TR/2001/REC-SVG-20010904/DTD/svg10.dtd">
<svg version="1.0" xmlns="http://www.w3.org/2000/svg"
 width="192.000000pt" height="192.000000pt" viewBox="0 0 192.000000 192.000000"
 preserveAspectRatio="xMidYMid meet">

<g transform="translate(0.000000,192.000000) scale(0.100000,-0.100000)"
fill="#f00" stroke="none">
<path d="M850 1914 c-213 -28 -439 -141 -581 -291 -116 -123 -198 -272 -240
-438 -33 -128 -33 -322 0 -450 73 -288 260 -516 522 -639 144 -67 246 -90 409
-90 163 0 265 23 409 90 206 97 358 249 455 456 67 143 90 246 90 408 0 162
-23 265 -90 408 -49 105 -93 170 -173 255 -116 123 -291 224 -461 266 -83 21
-265 34 -340 25z m530 -539 c36 -18 60 -62 60 -107 0 -43 -238 -523 -277 -559
-16 -15 -86 -60 -156 -103 -168 -100 -217 -101 -275 -7 -55 88 -242 474 -248
511 -11 67 50 140 117 140 60 0 89 -35 191 -235 60 -119 102 -189 110 -187 7
2 30 14 51 28 32 21 52 55 151 253 124 247 150 281 212 281 19 0 48 -7 64 -15z"/>
</g>
</svg>
